<svg xmlns="http://www.w3.org/2000/svg" xmlns:xlink="http://www.w3.org/1999/xlink" version="1.1" enable-background="new 469 -27 128 128" xml:space="preserve" width="128" height="40"><rect id="backgroundrect" width="100%" height="100%" x="0" y="0" fill="none" stroke="none"/>

<g class="currentLayer"><title>Layer 1</title><g id="svg_1" class="selected">
	<path d="M124,40 H4 c-2.2,0 -4,-1.8 -4,-4 V4 c0,-2.2 1.8,-4 4,-4 h120 c2.2,0 4,1.8 4,4 v32 C128,38.2 126.20000000000005,40 124,40 z" id="svg_2"/>
	<path fill="#FF9900" d="M29.399999999999977,28.5 c-9.7,4.6 -15.7,0.8 -19.5,-1.6 c-0.2,-0.1 -0.6000000000000001,0 -0.30000000000000004,0.4 c1.3,1.6 5.5,5.3 11,5.3 c5.5,0 8.7,-3 9.2,-3.5 C30.100000000000023,28.6 29.899999999999977,28.299999999999997 29.399999999999977,28.5 z" id="svg_3"/>
	<path fill="#FF9900" d="M32.19999999999999,27 c-0.30000000000000004,-0.30000000000000004 -1.6,-0.4 -2.4,-0.30000000000000004 c-0.8,0.1 -2.1,0.6000000000000001 -2,0.9 c0.1,0.1 0.2,0.1 0.7000000000000001,0 c0.6000000000000001,-0.1 2.2,-0.30000000000000004 2.5,0.2 c0.30000000000000004,0.4 -0.5,2.5 -0.7000000000000001,2.9 c-0.1,0.30000000000000004 0.1,0.4 0.30000000000000004,0.2 c0.30000000000000004,-0.2 0.8,-0.8 1.1,-1.6 C32.19999999999999,28.4 32.39999999999998,27.200000000000003 32.19999999999999,27 z" id="svg_4"/>
	<path fill="#FFFFFF" d="M27,21.1 v-7.7 c0,-1.3 -1.3,-4.3 -5.9,-4.3 c-4.6,0 -7.1,2.9 -7.1,5.5 l3.9,0.30000000000000004 c0,0 0.9,-2.6 2.8,-2.6 c2,0 1.9,1.6 1.9,2 V16 c-2.6,0.1 -8.9,0.8 -8.9,6.2 c0,5.7 7.2,6 9.6,2.3 c0.1,0.2 0.2,0.30000000000000004 0.30000000000000004,0.4 c0.9,0.9 2,2 2,2 l3,-2.9 C28.69999999999999,23.9 27,22.6 27,21.1 zM22.600000000000023,20.5 c0,4.2 -4.4,3.6 -4.4,0.9 c0,-2.5 2.6,-3 4.4,-3 V20.5 z" id="svg_5"/>
	<g id="svg_6">
		<path fill="#FFFFFF" d="M42.89999999999998,8.100000000000001 h1.2 l2.5,6.4 h-1.2 l-0.6000000000000001,-1.7000000000000002 h-2.6 l-0.6000000000000001,1.7000000000000002 h-1.2 L42.89999999999998,8.100000000000001 zM42.5,11.899999999999999 h2 l-1,-2.8 h0 L42.5,11.899999999999999 z" id="svg_7"/>
		<path fill="#FFFFFF" d="M46.39999999999998,9.8 h1.1 l1.2,3.6 h0 l1.1,-3.6 h1.1 l-1.7000000000000002,4.7 h-1.2 L46.39999999999998,9.8 z" id="svg_8"/>
		<path fill="#FFFFFF" d="M55.39999999999998,13.5 c0,0.1 0,0.2 0,0.30000000000000004 c0,0.1 0.1,0.1 0.2,0.1 c0,0 0.1,0 0.1,0 s0.1,0 0.1,0 v0.7000000000000001 c0,0 -0.1,0 -0.1,0 c-0.1,0 -0.1,0 -0.2,0 c-0.1,0 -0.1,0 -0.2,0 c-0.1,0 -0.1,0 -0.2,0 c-0.2,0 -0.4,0 -0.5,-0.1 c-0.1,-0.1 -0.2,-0.2 -0.30000000000000004,-0.4 c-0.2,0.2 -0.5,0.30000000000000004 -0.8,0.4 c-0.30000000000000004,0.1 -0.6000000000000001,0.1 -0.9,0.1 c-0.2,0 -0.4,0 -0.6000000000000001,-0.1 c-0.2,-0.1 -0.4,-0.1 -0.5,-0.30000000000000004 c-0.1,-0.1 -0.30000000000000004,-0.30000000000000004 -0.4,-0.4 c-0.1,-0.2 -0.1,-0.4 -0.1,-0.6000000000000001 c0,-0.30000000000000004 0.1,-0.5 0.2,-0.7000000000000001 c0.1,-0.2 0.2,-0.30000000000000004 0.4,-0.4 s0.4,-0.2 0.6000000000000001,-0.2 s0.4,-0.1 0.6000000000000001,-0.1 c0.2,0 0.4,-0.1 0.5,-0.1 c0.2,0 0.30000000000000004,0 0.4,-0.1 s0.2,-0.1 0.30000000000000004,-0.2 s0.1,-0.2 0.1,-0.30000000000000004 c0,-0.1 0,-0.2 -0.1,-0.30000000000000004 c-0.1,-0.1 -0.1,-0.1 -0.2,-0.2 s-0.2,-0.1 -0.30000000000000004,-0.1 c-0.1,0 -0.2,0 -0.30000000000000004,0 c-0.30000000000000004,0 -0.5,0.1 -0.7000000000000001,0.2 c-0.2,0.1 -0.30000000000000004,0.30000000000000004 -0.30000000000000004,0.6000000000000001 h-1 c0,-0.30000000000000004 0.1,-0.5 0.2,-0.7000000000000001 c0.1,-0.2 0.30000000000000004,-0.4 0.5,-0.5 c0.2,-0.1 0.4,-0.2 0.7000000000000001,-0.30000000000000004 c0.2,0 0.5,-0.1 0.8,-0.1 c0.2,0 0.5,0 0.7000000000000001,0.1 c0.2,0 0.4,0.1 0.6000000000000001,0.2 s0.30000000000000004,0.2 0.4,0.4 c0.1,0.2 0.2,0.4 0.2,0.6000000000000001 V13.5 zM54.39999999999998,12.2 c-0.2,0.1 -0.30000000000000004,0.2 -0.6000000000000001,0.2 c-0.2,0 -0.5,0.1 -0.7000000000000001,0.1 c-0.1,0 -0.2,0 -0.30000000000000004,0.1 c-0.1,0 -0.2,0.1 -0.30000000000000004,0.1 c-0.1,0.1 -0.1,0.1 -0.2,0.2 c0,0.1 -0.1,0.2 -0.1,0.30000000000000004 c0,0.1 0,0.2 0.1,0.30000000000000004 c0.1,0.1 0.1,0.1 0.2,0.2 s0.2,0.1 0.30000000000000004,0.1 c0.1,0 0.2,0 0.30000000000000004,0 c0.1,0 0.2,0 0.4,0 c0.1,0 0.30000000000000004,-0.1 0.4,-0.2 c0.1,-0.1 0.2,-0.2 0.30000000000000004,-0.30000000000000004 c0.1,-0.1 0.1,-0.2 0.1,-0.4 V12.2 z" id="svg_9"/>
		<path fill="#FFFFFF" d="M56.60000000000002,8.100000000000001 h1 v1 h-1 V8.100000000000001 zM56.60000000000002,9.8 h1 v4.7 h-1 V9.8 z" id="svg_10"/>
		<path fill="#FFFFFF" d="M58.799999999999955,8.100000000000001 h1 v6.4 h-1 V8.100000000000001 z" id="svg_11"/>
		<path fill="#FFFFFF" d="M64.79999999999995,13.5 c0,0.1 0,0.2 0,0.30000000000000004 c0,0.1 0.1,0.1 0.2,0.1 c0,0 0.1,0 0.1,0 s0.1,0 0.1,0 v0.7000000000000001 c0,0 -0.1,0 -0.1,0 c-0.1,0 -0.1,0 -0.2,0 c-0.1,0 -0.1,0 -0.2,0 c-0.1,0 -0.1,0 -0.2,0 c-0.2,0 -0.4,0 -0.5,-0.1 c-0.1,-0.1 -0.2,-0.2 -0.30000000000000004,-0.4 c-0.2,0.2 -0.5,0.30000000000000004 -0.8,0.4 c-0.30000000000000004,0.1 -0.6000000000000001,0.1 -0.9,0.1 c-0.2,0 -0.4,0 -0.6000000000000001,-0.1 c-0.2,-0.1 -0.4,-0.1 -0.5,-0.30000000000000004 c-0.1,-0.1 -0.30000000000000004,-0.30000000000000004 -0.4,-0.4 c-0.1,-0.2 -0.1,-0.4 -0.1,-0.6000000000000001 c0,-0.30000000000000004 0.1,-0.5 0.2,-0.7000000000000001 c0.1,-0.2 0.2,-0.30000000000000004 0.4,-0.4 s0.4,-0.2 0.6000000000000001,-0.2 s0.4,-0.1 0.6000000000000001,-0.1 c0.2,0 0.4,-0.1 0.5,-0.1 c0.2,0 0.30000000000000004,0 0.4,-0.1 s0.2,-0.1 0.30000000000000004,-0.2 s0.1,-0.2 0.1,-0.30000000000000004 c0,-0.1 0,-0.2 -0.1,-0.30000000000000004 c-0.1,-0.1 -0.1,-0.1 -0.2,-0.2 s-0.2,-0.1 -0.30000000000000004,-0.1 c-0.1,0 -0.2,0 -0.30000000000000004,0 c-0.30000000000000004,0 -0.5,0.1 -0.7000000000000001,0.2 c-0.2,0.1 -0.30000000000000004,0.30000000000000004 -0.30000000000000004,0.6000000000000001 h-1 c0,-0.30000000000000004 0.1,-0.5 0.2,-0.7000000000000001 c0.1,-0.2 0.30000000000000004,-0.4 0.5,-0.5 c0.2,-0.1 0.4,-0.2 0.7000000000000001,-0.30000000000000004 c0.2,0 0.5,-0.1 0.8,-0.1 c0.2,0 0.5,0 0.7000000000000001,0.1 c0.2,0 0.4,0.1 0.6000000000000001,0.2 s0.30000000000000004,0.2 0.4,0.4 c0.1,0.2 0.2,0.4 0.2,0.6000000000000001 V13.5 zM63.799999999999955,12.2 c-0.2,0.1 -0.30000000000000004,0.2 -0.6000000000000001,0.2 c-0.2,0 -0.5,0.1 -0.7000000000000001,0.1 c-0.1,0 -0.2,0 -0.30000000000000004,0.1 c-0.1,0 -0.2,0.1 -0.30000000000000004,0.1 c-0.1,0.1 -0.1,0.1 -0.2,0.2 c0,0.1 -0.1,0.2 -0.1,0.30000000000000004 c0,0.1 0,0.2 0.1,0.30000000000000004 c0.1,0.1 0.1,0.1 0.2,0.2 s0.2,0.1 0.30000000000000004,0.1 c0.1,0 0.2,0 0.30000000000000004,0 c0.1,0 0.2,0 0.4,0 c0.1,0 0.30000000000000004,-0.1 0.4,-0.2 c0.1,-0.1 0.2,-0.2 0.30000000000000004,-0.30000000000000004 c0.1,-0.1 0.1,-0.2 0.1,-0.4 V12.2 z" id="svg_12"/>
		<path fill="#FFFFFF" d="M65.89999999999998,8.100000000000001 h1 v2.4 h0 c0.1,-0.1 0.2,-0.2 0.30000000000000004,-0.30000000000000004 c0.1,-0.1 0.2,-0.2 0.30000000000000004,-0.2 c0.1,-0.1 0.30000000000000004,-0.1 0.4,-0.1 c0.1,0 0.30000000000000004,0 0.4,0 c0.4,0 0.7000000000000001,0.1 1,0.2 c0.30000000000000004,0.1 0.5,0.30000000000000004 0.7000000000000001,0.5 c0.2,0.2 0.30000000000000004,0.5 0.4,0.8 c0.1,0.30000000000000004 0.1,0.6000000000000001 0.1,1 c0,0.30000000000000004 0,0.6000000000000001 -0.1,0.9 s-0.2,0.6000000000000001 -0.4,0.8 c-0.2,0.2 -0.4,0.4 -0.6000000000000001,0.5 c-0.30000000000000004,0.1 -0.5,0.2 -0.9,0.2 c-0.2,0 -0.30000000000000004,0 -0.5,0 c-0.2,0 -0.30000000000000004,-0.1 -0.5,-0.1 c-0.1,-0.1 -0.30000000000000004,-0.1 -0.4,-0.2 c-0.1,-0.1 -0.2,-0.2 -0.30000000000000004,-0.4 h0 v0.6000000000000001 h-1 V8.100000000000001 zM69.5,12.2 c0,-0.2 0,-0.4 -0.1,-0.6000000000000001 c-0.1,-0.2 -0.1,-0.4 -0.2,-0.5 c-0.1,-0.2 -0.2,-0.30000000000000004 -0.4,-0.4 c-0.2,-0.1 -0.30000000000000004,-0.1 -0.6000000000000001,-0.1 c-0.4,0 -0.8,0.2 -1,0.5 c-0.2,0.30000000000000004 -0.30000000000000004,0.7000000000000001 -0.30000000000000004,1.2 c0,0.2 0,0.5 0.1,0.7000000000000001 c0.1,0.2 0.1,0.4 0.30000000000000004,0.5 c0.1,0.1 0.2,0.30000000000000004 0.4,0.30000000000000004 s0.30000000000000004,0.1 0.6000000000000001,0.1 c0.2,0 0.4,0 0.6000000000000001,-0.1 c0.2,-0.1 0.30000000000000004,-0.2 0.4,-0.4 c0.1,-0.2 0.2,-0.30000000000000004 0.2,-0.5 C69.5,12.600000000000001 69.5,12.399999999999999 69.5,12.2 z" id="svg_13"/>
		<path fill="#FFFFFF" d="M71.39999999999998,8.100000000000001 h1 v6.4 h-1 V8.100000000000001 z" id="svg_14"/>
		<path fill="#FFFFFF" d="M74.39999999999998,12.399999999999999 c0,0.2 0,0.4 0.1,0.5 c0.1,0.2 0.1,0.30000000000000004 0.2,0.4 c0.1,0.1 0.2,0.2 0.4,0.30000000000000004 s0.30000000000000004,0.1 0.6000000000000001,0.1 c0.30000000000000004,0 0.5,-0.1 0.7000000000000001,-0.2 s0.30000000000000004,-0.30000000000000004 0.4,-0.6000000000000001 h1 c-0.1,0.30000000000000004 -0.1,0.5 -0.30000000000000004,0.7000000000000001 c-0.1,0.2 -0.30000000000000004,0.4 -0.5,0.5 c-0.2,0.1 -0.4,0.2 -0.6000000000000001,0.30000000000000004 c-0.2,0.1 -0.5,0.1 -0.7000000000000001,0.1 c-0.4,0 -0.7000000000000001,-0.1 -1,-0.2 c-0.30000000000000004,-0.1 -0.5,-0.30000000000000004 -0.7000000000000001,-0.5 c-0.2,-0.2 -0.30000000000000004,-0.5 -0.4,-0.8 c-0.1,-0.30000000000000004 -0.1,-0.6000000000000001 -0.1,-1 c0,-0.30000000000000004 0.1,-0.6000000000000001 0.2,-0.9 c0.1,-0.30000000000000004 0.30000000000000004,-0.6000000000000001 0.5,-0.8 c0.2,-0.2 0.4,-0.4 0.7000000000000001,-0.5 c0.30000000000000004,-0.1 0.6000000000000001,-0.2 0.9,-0.2 c0.4,0 0.7000000000000001,0.1 1,0.2 c0.30000000000000004,0.2 0.5,0.4 0.7000000000000001,0.6000000000000001 c0.2,0.30000000000000004 0.30000000000000004,0.5 0.4,0.9 c0.1,0.30000000000000004 0.1,0.7000000000000001 0.1,1 H74.39999999999998 zM76.79999999999995,11.8 c0,-0.2 0,-0.30000000000000004 -0.1,-0.5 c-0.1,-0.1 -0.1,-0.30000000000000004 -0.2,-0.4 c-0.1,-0.1 -0.2,-0.2 -0.4,-0.30000000000000004 c-0.1,-0.1 -0.30000000000000004,-0.1 -0.5,-0.1 c-0.2,0 -0.30000000000000004,0 -0.5,0.1 c-0.1,0.1 -0.30000000000000004,0.1 -0.4,0.30000000000000004 c-0.1,0.1 -0.2,0.2 -0.30000000000000004,0.4 c-0.1,0.2 -0.1,0.30000000000000004 -0.1,0.5 H76.79999999999995 z" id="svg_15"/>
		<path fill="#FFFFFF" d="M83.20000000000005,14.600000000000001 c-0.4,0 -0.7000000000000001,-0.1 -1,-0.2 s-0.5,-0.30000000000000004 -0.7000000000000001,-0.5 c-0.2,-0.2 -0.4,-0.5 -0.5,-0.8 c-0.1,-0.30000000000000004 -0.2,-0.6000000000000001 -0.2,-1 c0,-0.4 0.1,-0.7000000000000001 0.2,-1 c0.1,-0.30000000000000004 0.30000000000000004,-0.6000000000000001 0.5,-0.8 s0.4,-0.4 0.7000000000000001,-0.5 c0.30000000000000004,-0.1 0.6000000000000001,-0.2 1,-0.2 s0.7000000000000001,0.1 1,0.2 c0.30000000000000004,0.1 0.5,0.30000000000000004 0.7000000000000001,0.5 s0.4,0.5 0.5,0.8 c0.1,0.30000000000000004 0.2,0.6000000000000001 0.2,1 c0,0.4 -0.1,0.7000000000000001 -0.2,1 c-0.1,0.30000000000000004 -0.30000000000000004,0.6000000000000001 -0.5,0.8 c-0.2,0.2 -0.4,0.4 -0.7000000000000001,0.5 C83.89999999999998,14.600000000000001 83.60000000000002,14.600000000000001 83.20000000000005,14.600000000000001 zM83.20000000000005,13.8 c0.2,0 0.4,0 0.6000000000000001,-0.1 c0.2,-0.1 0.30000000000000004,-0.2 0.4,-0.4 c0.1,-0.2 0.2,-0.30000000000000004 0.2,-0.5 c0.1,-0.2 0.1,-0.4 0.1,-0.6000000000000001 c0,-0.2 0,-0.4 -0.1,-0.6000000000000001 c-0.1,-0.2 -0.1,-0.4 -0.2,-0.5 c-0.1,-0.2 -0.2,-0.30000000000000004 -0.4,-0.4 c-0.2,-0.1 -0.4,-0.1 -0.6000000000000001,-0.1 c-0.2,0 -0.4,0 -0.6000000000000001,0.1 c-0.2,0.1 -0.30000000000000004,0.2 -0.4,0.4 c-0.1,0.2 -0.2,0.30000000000000004 -0.2,0.5 c-0.1,0.2 -0.1,0.4 -0.1,0.6000000000000001 c0,0.2 0,0.4 0.1,0.6000000000000001 c0.1,0.2 0.1,0.4 0.2,0.5 c0.1,0.2 0.2,0.30000000000000004 0.4,0.4 C82.79999999999995,13.8 83,13.8 83.20000000000005,13.8 z" id="svg_16"/>
		<path fill="#FFFFFF" d="M86.39999999999998,9.8 h1 v0.7000000000000001 l0,0 c0.2,-0.30000000000000004 0.4,-0.5 0.6000000000000001,-0.6000000000000001 s0.5,-0.2 0.8,-0.2 c0.5,0 0.9,0.1 1.2,0.4 c0.30000000000000004,0.30000000000000004 0.4,0.7000000000000001 0.4,1.2 v3.2 h-1 v-2.9 c0,-0.4 -0.1,-0.6000000000000001 -0.2,-0.8 c-0.1,-0.2 -0.4,-0.2 -0.7000000000000001,-0.2 c-0.2,0 -0.30000000000000004,0 -0.5,0.1 c-0.1,0.1 -0.30000000000000004,0.1 -0.4,0.30000000000000004 c-0.1,0.1 -0.2,0.2 -0.2,0.4 c-0.1,0.2 -0.1,0.30000000000000004 -0.1,0.5 v2.7 h-1 V9.8 z" id="svg_17"/>
	</g>
	<path fill-rule="evenodd" clip-rule="evenodd" fill="#FFFFFF" d="M67.29999999999995,23 v-1.1 c0,-0.2 0.1,-0.30000000000000004 0.30000000000000004,-0.30000000000000004 l4.7,0 c0.2,0 0.30000000000000004,0.1 0.30000000000000004,0.30000000000000004 l0,0.9 c0,0.2 -0.1,0.30000000000000004 -0.4,0.7000000000000001 l-2.4,3.5 c0.9,0 1.9,0.1 2.7,0.6000000000000001 c0.2,0.1 0.2,0.30000000000000004 0.30000000000000004,0.4 v1.1 c0,0.2 -0.2,0.30000000000000004 -0.30000000000000004,0.2 c-1.5,-0.8 -3.4,-0.8 -5,0 c-0.2,0.1 -0.30000000000000004,-0.1 -0.30000000000000004,-0.2 V28 c0,-0.2 0,-0.5 0.2,-0.7000000000000001 l2.8,-4.1 l-2.5,0 C67.39999999999998,23.200000000000003 67.29999999999995,23.1 67.29999999999995,23 z" id="svg_18"/>
	<path fill-rule="evenodd" clip-rule="evenodd" fill="#FFFFFF" d="M50,29.6 h-1.4 c-0.1,0 -0.2,-0.1 -0.30000000000000004,-0.2 l0,-7.4 c0,-0.1 0.1,-0.30000000000000004 0.30000000000000004,-0.30000000000000004 l1.3,0 c0.1,0 0.30000000000000004,0.1 0.30000000000000004,0.2 v1 h0 c0.30000000000000004,-0.9 1,-1.4 1.9,-1.4 c0.9,0 1.5,0.4 1.9,1.4 c0.30000000000000004,-0.9 1.1,-1.4 2,-1.4 c0.6000000000000001,0 1.3,0.2 1.7000000000000002,0.8 c0.5,0.6000000000000001 0.4,1.5 0.4,2.3 l0,4.7 c0,0.1 -0.1,0.30000000000000004 -0.30000000000000004,0.30000000000000004 h-1.4 c-0.1,0 -0.30000000000000004,-0.1 -0.30000000000000004,-0.30000000000000004 l0,-3.9 c0,-0.30000000000000004 0,-1.1 0,-1.4 c-0.1,-0.5 -0.4,-0.6000000000000001 -0.8,-0.6000000000000001 c-0.30000000000000004,0 -0.7000000000000001,0.2 -0.9,0.6000000000000001 s-0.1,1 -0.1,1.4 v3.9 c0,0.1 -0.1,0.30000000000000004 -0.30000000000000004,0.30000000000000004 h-1.4 c-0.1,0 -0.30000000000000004,-0.1 -0.30000000000000004,-0.30000000000000004 l0,-3.9 c0,-0.8 0.1,-2 -0.9,-2 c-1,0 -1,1.2 -1,2 l0,3.9 C50.299999999999955,29.5 50.200000000000045,29.6 50,29.6 z" id="svg_19"/>
	<path fill-rule="evenodd" clip-rule="evenodd" fill="#FFFFFF" d="M76.60000000000002,21.5 c2.1,0 3.3,1.8 3.3,4.2 c0,2.3 -1.3,4 -3.3,4 c-2.1,0 -3.2,-1.8 -3.2,-4.1 C73.39999999999998,23.299999999999997 74.5,21.5 76.60000000000002,21.5 zM76.60000000000002,23 c-1.1,0 -1.1,1.4 -1.1,2.3 c0,0.9 0,2.8 1.1,2.8 c1.1,0 1.2,-1.6 1.2,-2.5 c0,-0.6000000000000001 0,-1.4 -0.2,-2 C77.39999999999998,23.200000000000003 77.10000000000002,23 76.60000000000002,23 z" id="svg_20"/>
	<path fill-rule="evenodd" clip-rule="evenodd" fill="#FFFFFF" d="M82.70000000000005,29.6 h-1.4 c-0.1,0 -0.30000000000000004,-0.1 -0.30000000000000004,-0.30000000000000004 l0,-7.4 c0,-0.1 0.1,-0.2 0.30000000000000004,-0.2 l1.3,0 c0.1,0 0.2,0.1 0.30000000000000004,0.2 V23 h0 c0.4,-1 1,-1.5 2,-1.5 c0.6000000000000001,0 1.3,0.2 1.7000000000000002,0.9 c0.4,0.6000000000000001 0.4,1.6 0.4,2.3 v4.6 c0,0.1 -0.1,0.2 -0.30000000000000004,0.2 h-1.4 c-0.1,0 -0.2,-0.1 -0.30000000000000004,-0.2 v-4 c0,-0.8 0.1,-2 -0.9,-2 c-0.30000000000000004,0 -0.7000000000000001,0.2 -0.8,0.6000000000000001 c-0.2,0.5 -0.2,0.9 -0.2,1.4 v4 C83,29.5 82.79999999999995,29.6 82.70000000000005,29.6 z" id="svg_21"/>
	<ellipse fill-rule="evenodd" clip-rule="evenodd" fill="#FFFFFF" cx="88.5" cy="29" rx="0.699999988079071" ry="0.699999988079071" id="svg_22"/>
	<path fill="#FFFFFF" d="M103,29.6 c-0.1,0 -0.30000000000000004,-0.1 -0.30000000000000004,-0.30000000000000004 v-7.4 c0,-0.1 0.1,-0.2 0.30000000000000004,-0.2 l0.5,0 c0.1,0 0.30000000000000004,0.1 0.30000000000000004,0.2 V23 c0.4,-0.9 1.1,-1.5 2,-1.5 l0.1,0 l0.1,0 c0.9,0 1.6,0.7000000000000001 1.9,1.7000000000000002 c0.4,-1 1.1,-1.7000000000000002 2.1,-1.7000000000000002 l0.1,0 l0.1,0 c0.7000000000000001,0 1.4,0.5 1.7000000000000002,1.1 c0.30000000000000004,0.7000000000000001 0.30000000000000004,1.5 0.30000000000000004,2.3 l0,4.4 c0,0.1 -0.1,0.30000000000000004 -0.30000000000000004,0.30000000000000004 h-0.6000000000000001 c-0.1,0 -0.2,-0.1 -0.30000000000000004,-0.2 v-4.5 c0,-0.5 0,-1.1 -0.2,-1.6 c-0.2,-0.5 -0.6000000000000001,-0.8 -1.1,-0.8 c-0.5,0 -1,0.4 -1.3,0.9 c-0.4,0.6000000000000001 -0.4,1.2 -0.4,2 v4 c0,0.1 -0.1,0.2 -0.30000000000000004,0.2 h-0.6000000000000001 c-0.1,0 -0.30000000000000004,-0.1 -0.30000000000000004,-0.30000000000000004 l0,-4.7 c0,-0.4 0,-0.9 -0.2,-1.3 c-0.2,-0.4 -0.6000000000000001,-0.7000000000000001 -1.1,-0.8 c-0.5,0 -0.9,0.4 -1.2,0.8 c-0.30000000000000004,0.5 -0.4,1.1 -0.4,1.8 l0,4.3 c0,0.1 -0.1,0.30000000000000004 -0.30000000000000004,0.30000000000000004 H103 z" id="svg_23"/>
	<path fill="#FFFFFF" d="M98.70000000000005,29.700000000000003 c-2,0 -3,-2.1 -3,-4.2 c0,-2.2 1.1,-4.1 3.1,-4.1 l0.1,0 l0.1,0 c2,0 3,2 3,4.1 c0,2.2 -1.1,4.1 -3.2,4.1 H98.70000000000005 L98.70000000000005,29.700000000000003 zM98.79999999999995,28.700000000000003 c0.7000000000000001,0 1.2,-0.4 1.5,-1.1 c0.30000000000000004,-0.6000000000000001 0.30000000000000004,-1.3 0.30000000000000004,-2 c0,-0.7000000000000001 -0.1,-1.5 -0.4,-2.2 c-0.30000000000000004,-0.6000000000000001 -0.9,-0.9 -1.4,-0.9 c-0.6000000000000001,0 -1.2,0.5 -1.5,1.1 c-0.30000000000000004,0.6000000000000001 -0.30000000000000004,1.3 -0.30000000000000004,2 c0,0.7000000000000001 0.1,1.5 0.4,2.2 C97.70000000000005,28.299999999999997 98.20000000000005,28.700000000000003 98.79999999999995,28.700000000000003 z" id="svg_24"/>
	<path fill="#FFFFFF" d="M92.29999999999995,28.700000000000003 c0.9,0 1.4,-0.8 1.6,-1.7000000000000002 c0,-0.1 0.1,-0.2 0.30000000000000004,-0.2 l0.6000000000000001,0 c0.1,0 0.30000000000000004,0.1 0.30000000000000004,0.2 c-0.30000000000000004,1.6 -1.3,2.7 -2.6,2.7 l-0.1,0 l-0.1,0 c-2,0 -2.9,-2 -2.9,-4.1 c0,-2 0.9,-4.1 2.9,-4.1 l0.1,0 l0.1,0 c1.4,0 2.4,1.1 2.6,2.7 c0,0.1 -0.1,0.2 -0.2,0.2 l-0.6000000000000001,0 c-0.1,0 -0.2,-0.1 -0.2,-0.30000000000000004 c-0.2,-0.9 -0.7000000000000001,-1.6 -1.5,-1.7000000000000002 c-1.4,0 -1.8,1.7000000000000002 -1.8,3 C90.60000000000002,26.799999999999997 90.89999999999998,28.6 92.29999999999995,28.700000000000003 z" id="svg_25"/>
	<path fill-rule="evenodd" clip-rule="evenodd" fill="#FFFFFF" d="M63.5,26 c0,0.6000000000000001 0,1 -0.30000000000000004,1.5 c-0.2,0.4 -0.6000000000000001,0.7000000000000001 -1,0.7000000000000001 c-0.6000000000000001,0 -0.9,-0.4 -0.9,-1 c0,-1.2 1.1,-1.4 2.1,-1.4 V26 zM65,29.6 c-0.1,0.1 -0.2,0.1 -0.30000000000000004,0 c-0.5,-0.4 -0.6000000000000001,-0.6000000000000001 -0.8,-1 c-0.8,0.8 -1.3,1 -2.4,1 c-1.2,0 -2.2,-0.7000000000000001 -2.2,-2.2 c0,-1.2 0.6000000000000001,-2 1.5,-2.4 c0.8,-0.30000000000000004 1.9,-0.4 2.7,-0.5 v-0.2 c0,-0.30000000000000004 0,-0.7000000000000001 -0.2,-1 c-0.2,-0.30000000000000004 -0.5,-0.4 -0.8,-0.4 c-0.5,0 -1,0.30000000000000004 -1.2,0.9 c0,0.1 -0.1,0.30000000000000004 -0.2,0.30000000000000004 l-1.4,-0.2 c-0.1,0 -0.2,-0.1 -0.2,-0.30000000000000004 c0.30000000000000004,-1.7000000000000002 1.8,-2.2 3.2,-2.2 c0.7000000000000001,0 1.6,0.2 2.2,0.7000000000000001 c0.7000000000000001,0.7000000000000001 0.6000000000000001,1.5 0.6000000000000001,2.5 v2.2 c0,0.7000000000000001 0.30000000000000004,1 0.5,1.3 c0.1,0.1 0.1,0.30000000000000004 0,0.4 C65.79999999999995,28.799999999999997 65.29999999999995,29.299999999999997 65,29.6 L65,29.6 z" id="svg_26"/>
	<path fill-rule="evenodd" clip-rule="evenodd" fill="#FFFFFF" d="M44.700000000000045,26 c0,0.6000000000000001 0,1 -0.30000000000000004,1.5 c-0.2,0.4 -0.6000000000000001,0.7000000000000001 -1,0.7000000000000001 c-0.6000000000000001,0 -0.9,-0.4 -0.9,-1 c0,-1.2 1.1,-1.4 2.1,-1.4 V26 zM46.10000000000002,29.6 c-0.1,0.1 -0.2,0.1 -0.30000000000000004,0 c-0.5,-0.4 -0.6000000000000001,-0.6000000000000001 -0.8,-1 c-0.8,0.8 -1.3,1 -2.4,1 c-1.2,0 -2.2,-0.7000000000000001 -2.2,-2.2 c0,-1.2 0.6000000000000001,-2 1.5,-2.4 c0.8,-0.30000000000000004 1.9,-0.4 2.7,-0.5 v-0.2 c0,-0.30000000000000004 0,-0.7000000000000001 -0.2,-1 c-0.2,-0.30000000000000004 -0.5,-0.4 -0.8,-0.4 c-0.5,0 -1,0.30000000000000004 -1.2,0.9 c0,0.1 -0.1,0.30000000000000004 -0.2,0.30000000000000004 l-1.4,-0.2 c-0.1,0 -0.2,-0.1 -0.2,-0.30000000000000004 c0.30000000000000004,-1.7000000000000002 1.8,-2.2 3.2,-2.2 c0.7000000000000001,0 1.6,0.2 2.2,0.7000000000000001 c0.7000000000000001,0.7000000000000001 0.6000000000000001,1.5 0.6000000000000001,2.5 v2.2 c0,0.7000000000000001 0.30000000000000004,1 0.5,1.3 c0.1,0.1 0.1,0.30000000000000004 0,0.4 C46.89999999999998,28.799999999999997 46.39999999999998,29.299999999999997 46.10000000000002,29.6 L46.10000000000002,29.6 z" id="svg_27"/>
</g></g></svg>