<svg width="164" height="48" viewBox="0 0 164 48" version="1.1" xmlns="http://www.w3.org/2000/svg"><title>appstore</title><g stroke="none" stroke-width="1" fill="none" fill-rule="evenodd"><rect fill="#000" x="0" y="0" width="164" height="48" rx="4"/><path d="M36.154 23.74c-.035-3.867 3.166-5.748 3.313-5.836-1.813-2.644-4.624-3.005-5.611-3.034-2.36-.248-4.65 1.413-5.853 1.413-1.226 0-3.078-1.389-5.073-1.348-2.568.04-4.97 1.527-6.288 3.835-2.72 4.708-.692 11.626 1.914 15.431 1.303 1.865 2.826 3.945 4.819 3.871 1.95-.079 2.678-1.242 5.031-1.242 2.332 0 3.016 1.242 5.049 1.196 2.093-.033 3.41-1.872 4.668-3.753 1.506-2.135 2.11-4.24 2.135-4.347-.048-.017-4.064-1.55-4.104-6.185zM32.314 12.367c1.048-1.311 1.766-3.096 1.567-4.907-1.518.068-3.417 1.05-4.51 2.333-.967 1.13-1.831 2.983-1.608 4.726 1.705.127 3.456-.86 4.55-2.152z" fill="#FFF"/><g fill="#FFF"><path d="M64.398 37.805h-2.725l-1.493-4.691h-5.189l-1.422 4.69h-2.653l5.142-15.969h3.175l5.165 15.97zm-4.668-6.659l-1.35-4.17c-.143-.426-.412-1.43-.805-3.008h-.048a127.1 127.1 0 0 1-.759 3.008l-1.327 4.17h4.289zM77.596 31.906c0 1.958-.532 3.506-1.596 4.642-.953 1.012-2.138 1.517-3.55 1.517-1.525 0-2.622-.543-3.288-1.633v6.042h-2.558v-12.4c0-1.23-.033-2.49-.095-3.784h2.25l.143 1.825h.048c.853-1.375 2.148-2.063 3.885-2.063 1.359 0 2.493.536 3.4 1.61.906 1.077 1.36 2.49 1.36 4.244zm-2.607.093c0-1.12-.252-2.045-.758-2.773-.553-.757-1.296-1.136-2.227-1.136-.632 0-1.205.21-1.718.627-.513.42-.85.969-1.006 1.648a3.34 3.34 0 0 0-.12.779v1.92c0 .837.258 1.544.771 2.122.514.576 1.181.866 2.002.866.963 0 1.713-.374 2.25-1.114.537-.743.806-1.722.806-2.939zM90.84 31.906c0 1.958-.532 3.506-1.596 4.642-.954 1.012-2.137 1.517-3.55 1.517-1.526 0-2.623-.543-3.289-1.633v6.042h-2.558v-12.4c0-1.23-.033-2.49-.095-3.784h2.25l.143 1.825h.048c.852-1.375 2.147-2.063 3.885-2.063 1.358 0 2.492.536 3.401 1.61.905 1.077 1.361 2.49 1.361 4.244zm-2.608.093c0-1.12-.253-2.045-.76-2.773-.552-.757-1.293-1.136-2.224-1.136-.631 0-1.205.21-1.72.627-.513.42-.848.969-1.005 1.648-.078.317-.12.575-.12.779v1.92c0 .837.258 1.544.769 2.122.514.575 1.18.866 2.004.866.965 0 1.715-.374 2.25-1.114.538-.743.806-1.722.806-2.939zM105.648 33.325c0 1.36-.475 2.465-1.42 3.318-1.039.931-2.49 1.398-4.35 1.398-1.718 0-3.096-.331-4.135-.995l.592-2.132c1.122.665 2.354.996 3.696.996.965 0 1.715-.218 2.25-.652.536-.434.807-1.015.807-1.74a2.23 2.23 0 0 0-.664-1.635c-.443-.442-1.175-.853-2.204-1.231-2.796-1.043-4.195-2.568-4.195-4.575 0-1.31.495-2.383 1.481-3.222.986-.837 2.294-1.256 3.922-1.256 1.453 0 2.664.253 3.625.758l-.642 2.086c-.905-.49-1.926-.735-3.069-.735-.902 0-1.61.222-2.116.664a1.899 1.899 0 0 0-.642 1.447c0 .63.246 1.153.735 1.564.425.378 1.2.79 2.321 1.231 1.375.554 2.386 1.2 3.032 1.942.652.741.976 1.666.976 2.77zM114.128 28.21h-2.82v5.59c0 1.422.497 2.132 1.493 2.132.457 0 .837-.039 1.137-.12l.07 1.944c-.504.188-1.167.283-1.99.283-1.01 0-1.8-.309-2.37-.925-.567-.617-.852-1.65-.852-3.105v-5.804h-1.68v-1.92h1.68v-2.109l2.512-.758v2.867h2.82v1.925zM126.827 31.952c0 1.77-.507 3.224-1.517 4.36-1.057 1.17-2.464 1.753-4.217 1.753-1.692 0-3.037-.56-4.04-1.68-1.003-1.122-1.505-2.535-1.505-4.24 0-1.785.518-3.247 1.552-4.383 1.035-1.138 2.43-1.706 4.183-1.706 1.69 0 3.047.561 4.074 1.682.981 1.087 1.47 2.491 1.47 4.214zm-2.652.06c0-1.056-.228-1.96-.685-2.718-.537-.914-1.305-1.371-2.3-1.371-1.024 0-1.81.457-2.346 1.371-.458.758-.686 1.678-.686 2.765 0 1.056.228 1.963.686 2.718.554.915 1.325 1.372 2.325 1.372.978 0 1.745-.467 2.299-1.395.47-.775.707-1.686.707-2.743zM135.146 28.54a4.452 4.452 0 0 0-.806-.071c-.9 0-1.596.338-2.086 1.02-.424.6-.638 1.358-.638 2.274v6.042h-2.558v-7.889c0-1.326-.026-2.536-.075-3.625h2.229l.093 2.203h.071c.271-.757.696-1.368 1.28-1.825.57-.412 1.185-.617 1.848-.617.237 0 .45.017.64.047l.002 2.44zM146.588 31.502a6 6 0 0 1-.093 1.16h-7.675c.028 1.138.4 2.01 1.113 2.61.647.535 1.483.804 2.51.804 1.137 0 2.174-.18 3.106-.544l.401 1.775c-1.09.475-2.376.711-3.86.711-1.786 0-3.188-.525-4.208-1.574-1.017-1.05-1.527-2.461-1.527-4.229 0-1.735.474-3.181 1.423-4.334.994-1.231 2.336-1.847 4.026-1.847 1.66 0 2.916.616 3.77 1.847.675.975 1.014 2.185 1.014 3.621zm-2.44-.663c.019-.76-.15-1.414-.496-1.967-.443-.713-1.124-1.068-2.038-1.068-.836 0-1.518.347-2.036 1.043-.426.553-.68 1.218-.757 1.99l5.328.002z"/></g><g fill="#FFF"><path d="M54.253 16.19c-.711 0-1.327-.036-1.84-.094V8.375a13.927 13.927 0 0 1 2.167-.163c2.934 0 4.285 1.443 4.285 3.796 0 2.715-1.596 4.181-4.612 4.181zm.43-6.988c-.396 0-.733.024-1.013.081v5.87c.151.023.442.034.85.034 1.922 0 3.016-1.094 3.016-3.144 0-1.827-.99-2.841-2.853-2.841zM63.076 16.248c-1.654 0-2.726-1.235-2.726-2.911 0-1.747 1.095-2.993 2.82-2.993 1.629 0 2.724 1.176 2.724 2.9 0 1.77-1.129 3.004-2.818 3.004zm.048-4.985c-.909 0-1.49.85-1.49 2.038 0 1.165.593 2.015 1.478 2.015.884 0 1.478-.909 1.478-2.04 0-1.151-.582-2.013-1.466-2.013zM75.324 10.46l-1.77 5.66h-1.153l-.733-2.458a18.635 18.635 0 0 1-.455-1.828h-.024c-.093.617-.268 1.235-.454 1.828l-.78 2.458H68.79l-1.666-5.66h1.293l.64 2.69c.152.642.279 1.246.385 1.818h.024c.092-.477.243-1.072.465-1.805l.804-2.701h1.025l.77 2.643c.185.641.336 1.27.454 1.864h.034c.081-.582.21-1.2.384-1.864l.687-2.643 1.235-.002zM81.84 16.12h-1.258v-3.25c0-1-.384-1.502-1.14-1.502-.746 0-1.258.64-1.258 1.386v3.366h-1.258v-4.042c0-.5-.012-1.037-.047-1.619h1.107l.058.874h.035c.339-.605 1.025-.989 1.794-.989 1.188 0 1.968.908 1.968 2.387l-.001 3.389zM85.308 16.12h-1.259V7.864h1.259v8.256zM89.893 16.248c-1.652 0-2.725-1.235-2.725-2.911 0-1.747 1.094-2.993 2.818-2.993 1.63 0 2.725 1.176 2.725 2.9.001 1.77-1.13 3.004-2.818 3.004zm.047-4.985c-.908 0-1.49.85-1.49 2.038 0 1.165.595 2.015 1.477 2.015.885 0 1.478-.909 1.478-2.04.001-1.151-.58-2.013-1.465-2.013zM97.67 16.12l-.092-.652h-.034c-.384.524-.944.78-1.654.78-1.014 0-1.734-.71-1.734-1.666 0-1.396 1.21-2.119 3.307-2.119v-.104c0-.745-.395-1.119-1.175-1.119-.558 0-1.048.14-1.478.42l-.256-.826c.523-.327 1.176-.49 1.943-.49 1.478 0 2.225.78 2.225 2.341v2.085c0 .57.025 1.014.081 1.35H97.67zm-.174-2.82c-1.396 0-2.097.34-2.097 1.142 0 .594.361.884.863.884.64 0 1.234-.488 1.234-1.152v-.873zM104.828 16.12l-.058-.909h-.035c-.361.687-.969 1.037-1.817 1.037-1.364 0-2.375-1.2-2.375-2.888 0-1.77 1.048-3.017 2.478-3.017.757 0 1.294.255 1.596.769h.025V7.864h1.26v6.73c0 .548.012 1.06.046 1.526h-1.12zm-.186-3.33c0-.792-.524-1.468-1.324-1.468-.933 0-1.503.827-1.503 1.99 0 1.142.592 1.923 1.477 1.923.791 0 1.35-.687 1.35-1.502v-.943zM113.882 16.248c-1.652 0-2.724-1.235-2.724-2.911 0-1.747 1.095-2.993 2.818-2.993 1.63 0 2.725 1.176 2.725 2.9.001 1.77-1.128 3.004-2.819 3.004zm.047-4.985c-.907 0-1.489.85-1.489 2.038 0 1.165.594 2.015 1.477 2.015.886 0 1.479-.909 1.479-2.04.002-1.151-.58-2.013-1.467-2.013zM123.464 16.12h-1.258v-3.25c0-1-.384-1.502-1.142-1.502-.745 0-1.256.64-1.256 1.386v3.366h-1.259v-4.042c0-.5-.012-1.037-.047-1.619h1.107l.059.874h.034c.338-.605 1.025-.99 1.793-.99 1.188 0 1.97.908 1.97 2.387v3.39zM131.926 11.404h-1.384v2.748c0 .7.242 1.048.732 1.048.222 0 .408-.024.558-.058l.035.955c-.244.093-.57.14-.976.14-.991 0-1.584-.547-1.584-1.98v-2.853h-.825v-.944h.825V9.424l1.235-.374v1.41h1.384v.944zM138.583 16.12h-1.256v-3.226c0-1.013-.383-1.525-1.141-1.525-.652 0-1.26.443-1.26 1.339v3.412h-1.256V7.864h1.257v3.4h.025c.396-.618.97-.921 1.702-.921 1.197 0 1.93.931 1.93 2.41v3.367zM145.404 13.592h-3.774c.024 1.072.733 1.677 1.783 1.677a4.25 4.25 0 0 0 1.525-.268l.196.874c-.535.233-1.165.349-1.898.349-1.77 0-2.818-1.118-2.818-2.852 0-1.736 1.073-3.04 2.676-3.04 1.446 0 2.353 1.072 2.353 2.69.004.221-.007.42-.043.57zm-1.153-.896c0-.874-.44-1.49-1.245-1.49-.722 0-1.293.628-1.375 1.49h2.62z"/></g></g></svg>