<svg width="164" height="48" viewBox="0 0 164 48" version="1.1" xmlns="http://www.w3.org/2000/svg"><title>playstore</title><defs><linearGradient x1="-.002%" y1="50%" x2="99.998%" y2="50%" id="a"><stop stop-color="#4BC3AE" offset="0%"/><stop stop-color="#DEE999" offset="100%"/></linearGradient><linearGradient x1="50.004%" y1="-.003%" x2="50.004%" y2="100.003%" id="b"><stop stop-color="#F87" offset="0%"/><stop stop-color="#FFB175" offset="61.21%"/><stop stop-color="#FFC774" offset="100%"/></linearGradient><linearGradient x1="49.998%" y1="-.002%" x2="49.998%" y2="100.003%" id="c"><stop stop-color="#207CB0" offset="0%"/><stop stop-color="#3CB2BF" offset="37.57%"/><stop stop-color="#58E9CE" offset="79.61%"/><stop stop-color="#63FFD4" offset="100%"/></linearGradient><linearGradient x1="49.997%" y1="0%" x2="49.997%" y2="100.005%" id="d"><stop stop-color="#EC403D" offset="0%"/><stop stop-color="#C93B75" offset="38.4%"/><stop stop-color="#A636AC" offset="79.88%"/><stop stop-color="#9934C2" offset="100%"/></linearGradient></defs><g stroke="none" stroke-width="1" fill="none" fill-rule="evenodd"><rect fill="#000" x="0" y="0" width="164" height="48" rx="4"/><g fill="#FFF"><path d="M113.675 35.292l-1.051.987c-.243.133-.484.288-.725.397-.73.33-1.472.414-2.132.414-.702 0-1.802-.045-2.924-.854-1.56-1.095-2.242-2.975-2.242-4.615 0-3.393 2.774-5.058 5.035-5.058.791 0 1.603.197 2.264.613 1.097.723 1.381 1.663 1.539 2.167l-5.166 2.079-1.692.13c.548 2.783 2.437 4.401 4.526 4.401 1.043 0 1.817-.339 2.527-.689 0 0 .142-.073.04.028zm-3.117-5.535c.42-.152.638-.283.638-.587 0-.875-.993-1.884-2.178-1.884-.879 0-2.526.68-2.526 3.045 0 .37.043.762.066 1.155l4-1.729z"/><path d="M102.874 35.122c0 .851.152.984.874 1.05.377.044.752.064 1.124.107l-.813.482h-3.872c.507-.656.595-.721.595-1.159v-.488l-.009-13.014h-1.71l1.646-.79h3.142c-.68.392-.884.632-.972 1.398l-.005 12.414z"/><path d="M96.868 27.637c.504.414 1.558 1.29 1.558 2.954 0 1.62-.918 2.385-1.843 3.108-.284.284-.615.594-.615 1.07 0 .485.332.748.57.943l.794.61c.965.812 1.845 1.556 1.845 3.068 0 2.06-2 4.135-5.78 4.135-3.184 0-4.724-1.51-4.724-3.13 0-.789.394-1.905 1.694-2.67 1.362-.829 3.208-.94 4.196-1.005-.309-.397-.66-.812-.66-1.49 0-.372.111-.593.22-.854-.241.023-.483.046-.703.046-2.33 0-3.649-1.732-3.649-3.439 0-1.007.461-2.123 1.408-2.932 1.253-1.028 2.747-1.205 3.934-1.205h4.528l-1.408.792h-1.365zm-1.557 9.718c-.18-.024-.288-.024-.505-.024-.2 0-1.386.043-2.306.35-.486.178-1.892.701-1.892 2.257 0 1.551 1.518 2.67 3.867 2.67 2.109 0 3.23-1.008 3.23-2.364-.002-1.116-.727-1.705-2.394-2.89zm.632-4.16c.508-.504.552-1.202.552-1.599 0-1.574-.942-4.026-2.769-4.026-.57 0-1.187.285-1.537.725-.371.456-.483 1.048-.483 1.617 0 1.466.858 3.897 2.746 3.897.55 0 1.143-.267 1.49-.613zM83.245 37.045c-3.493 0-5.362-2.71-5.362-5.163 0-2.866 2.35-5.319 5.691-5.319 3.23 0 5.254 2.52 5.254 5.165 0 2.583-2 5.317-5.583 5.317zm2.747-1.771c.532-.7.66-1.575.66-2.427 0-1.928-.921-5.605-3.646-5.605-.725 0-1.455.283-1.981.744-.858.766-1.012 1.728-1.012 2.672 0 2.163 1.073 5.73 3.736 5.73.86 0 1.738-.415 2.243-1.114zM71.55 37.045c-3.493 0-5.359-2.71-5.359-5.163 0-2.866 2.35-5.319 5.69-5.319 3.23 0 5.25 2.52 5.25 5.165 0 2.583-1.997 5.317-5.58 5.317zm2.749-1.771c.527-.7.659-1.575.659-2.427 0-1.928-.925-5.605-3.647-5.605-.728 0-1.45.283-1.977.744-.86.766-1.012 1.728-1.012 2.672 0 2.163 1.077 5.73 3.736 5.73.858 0 1.734-.415 2.24-1.114zM64.795 36.285l-2.946.672c-1.194.187-2.266.352-3.4.352-5.683 0-7.848-4.167-7.848-7.427 0-3.982 3.068-7.674 8.32-7.674 1.112 0 2.182.163 3.156.427 1.544.433 2.266.965 2.718 1.277l-1.712 1.62-.721.16.514-.817c-.697-.678-1.977-1.93-4.408-1.93-3.25 0-5.702 2.462-5.702 6.055 0 3.858 2.8 7.488 7.289 7.488 1.319 0 1.998-.264 2.615-.51V32.67l-3.11.166 1.649-.882h4.364l-.533.512c-.145.122-.163.163-.204.327-.021.187-.04.78-.04.99v2.502h-.001z"/></g><g fill="#FFF"><path d="M120.009 35.386v5.575h-1.112V26.774h1.112v1.615a4.424 4.424 0 0 1 3.584-1.872c2.755 0 4.612 2.083 4.612 5.38 0 3.275-1.857 5.401-4.612 5.401-1.451.001-2.75-.744-3.584-1.912zm7.002-3.488c0-2.485-1.3-4.38-3.606-4.38-1.432 0-2.801 1.12-3.396 2.098v4.541c.595.98 1.964 2.141 3.396 2.141 2.306 0 3.606-1.911 3.606-4.4zM129.723 37.043V22.857h1.111v14.186h-1.11zM143.307 40.043c.237.106.643.171.9.171.68 0 1.154-.277 1.58-1.256l.81-1.829-4.38-10.355h1.24l3.757 8.973 3.72-8.973h1.257l-5.34 12.527c-.554 1.291-1.426 1.912-2.624 1.912-.36 0-.833-.064-1.11-.149l.19-1.02zM140.06 37.013c-.074-.356-.13-.67-.171-.932a6.113 6.113 0 0 1-.054-.8c-.381.557-.921 1.02-1.61 1.386-.691.367-1.346.548-2.246.548-1.083 0-1.923-.265-2.523-.803-.598-.538-.899-1.266-.899-2.188 0-.92.436-1.668 1.304-2.24.869-.573 1.992-.858 3.381-.858h2.593v-1.277c0-.735-.252-1.312-.754-1.732-.504-.419-1.211-.631-2.129-.631-.838 0-1.517.194-2.035.571-.513.385-.772.863-.772 1.438h-1.137l-.024-.055c-.04-.775.315-1.456 1.073-2.043.753-.587 1.742-.882 2.957-.882 1.211 0 2.192.29 2.932.87.738.574 1.109 1.404 1.109 2.488v5.067c0 .364.017.715.063 1.058.047.343.122.685.221 1.016h-1.28v-.001zm-3.944-.807c.944 0 1.622-.21 2.317-.626.688-.414 1.157-.953 1.403-1.605v-1.972h-2.605c-.995 0-1.819.22-2.466.662-.65.441-.98.975-.98 1.596 0 .585.21 1.054.624 1.409.415.358.983.536 1.707.536z"/></g><path d="M30.964 23.779l-14.09-13.8c.365-.11.816-.049 1.303.212l17.2 9.265-1.47 1.441 1.471-1.441 5.895 3.174c1.19.641 1.19 1.69 0 2.333L35.4 28.125l-4.437-4.345v-.001zM16.012 11.445l.003 24.703c0 .776.328 1.287.837 1.458l14.113-13.824L16.874 9.981c-.524.16-.862.679-.862 1.464zm.84 26.161c.366.122.825.065 1.325-.204l17.222-9.277-4.434-4.343-14.113 13.824z" opacity=".7" fill="#FFF"/><path d="M30.964 23.78l4.415-4.324h-.001l-4.414 4.324-14.09-13.8 14.09 13.802-14.112 13.824 14.112-13.824 4.435 4.343h.002l-4.437-4.345z"/><path d="M19.378 9.456L2.177.19C1.69-.07 1.239-.13.874-.02l14.091 13.8 4.413-4.324z" fill="url(#a)" transform="translate(16 10)"/><path d="M19.401 18.125l5.872-3.162c1.19-.644 1.19-1.692 0-2.333l-5.895-3.174-4.414 4.324 4.437 4.345z" fill="url(#b)" transform="translate(16 10)"/><path d="M.012 1.445l.003 24.703c0 .776.328 1.287.837 1.458l14.113-13.824L.874-.019C.35.14.012.66.012 1.445z" fill="url(#c)" transform="translate(16 10)"/><path d="M.852 27.606c.366.122.825.065 1.325-.204l17.222-9.277-4.434-4.343L.852 27.606z" fill="url(#d)" transform="translate(16 10)"/><path d="M55.232 14.51h-2.479L52.235 16h-1.156l2.417-6.398h.998L56.915 16h-1.16l-.523-1.49zm-2.167-.896h1.855l-.927-2.655-.928 2.655zM63.215 16h-1.111l-2.852-4.54V16H58.14V9.602h1.112l2.86 4.557V9.602h1.104V16zm1.815 0V9.602h1.89c.427 0 .818.071 1.17.215.354.143.657.348.91.613.254.265.45.585.591.96.14.375.211.794.211 1.257v.316c0 .463-.07.881-.208 1.255-.14.374-.337.692-.594.956a2.625 2.625 0 0 1-.927.61 3.245 3.245 0 0 1-1.206.216H65.03zm1.112-5.502v4.614h.725c.301 0 .567-.049.795-.147.229-.098.418-.24.57-.424.15-.185.264-.41.34-.677a3.28 3.28 0 0 0 .114-.9v-.326c0-.694-.15-1.224-.453-1.59-.301-.367-.74-.55-1.314-.55h-.777zm7.619 3.037h-1.24V16H71.41V9.602h2.25c.366 0 .693.041.98.125.287.083.53.206.727.369.198.163.348.364.45.604.103.24.154.519.154.835 0 .428-.103.786-.31 1.075-.206.288-.494.51-.863.665l1.437 2.668V16h-1.191l-1.283-2.465zm-1.24-.892h1.143c.2 0 .374-.027.523-.08.15-.052.274-.125.374-.22a.896.896 0 0 0 .224-.333c.05-.13.074-.271.074-.427 0-.164-.023-.312-.07-.446a.886.886 0 0 0-.587-.562 1.695 1.695 0 0 0-.542-.077H72.52v2.145zm10.111.325c0 .486-.063.922-.19 1.307a2.848 2.848 0 0 1-.54.98c-.23.268-.509.474-.834.618a2.648 2.648 0 0 1-1.081.215c-.393 0-.752-.072-1.077-.215a2.398 2.398 0 0 1-.841-.618 2.843 2.843 0 0 1-.55-.98 4.067 4.067 0 0 1-.195-1.307v-.325c0-.487.065-.923.195-1.31s.312-.715.545-.984c.233-.27.512-.476.837-.62a2.637 2.637 0 0 1 1.077-.215c.396 0 .757.071 1.083.215.327.144.607.35.84.62.233.27.413.597.54.984.128.387.191.823.191 1.31v.325zm-1.111-.334c0-.358-.035-.673-.104-.947a2.02 2.02 0 0 0-.3-.688 1.305 1.305 0 0 0-.486-.42 1.449 1.449 0 0 0-.653-.142c-.237 0-.451.047-.642.142-.19.096-.352.235-.485.42a2.053 2.053 0 0 0-.308.688c-.072.274-.107.59-.107.947v.334c0 .357.035.674.107.949.072.275.175.506.31.692a1.333 1.333 0 0 0 1.134.565c.492 0 .87-.188 1.136-.563.265-.375.398-.923.398-1.643v-.334zM85.413 16h-1.107V9.602h1.107V16zm1.867 0V9.602h1.89c.427 0 .818.071 1.17.215.354.143.657.348.91.613.254.265.45.585.591.96.14.375.211.794.211 1.257v.316c0 .463-.07.881-.208 1.255-.14.374-.337.692-.594.956a2.625 2.625 0 0 1-.927.61 3.245 3.245 0 0 1-1.206.216H87.28zm1.112-5.502v4.614h.725c.301 0 .567-.049.795-.147.229-.098.418-.24.57-.424.15-.185.264-.41.34-.677a3.28 3.28 0 0 0 .114-.9v-.326c0-.694-.15-1.224-.453-1.59-.301-.367-.74-.55-1.314-.55h-.777zm11.59 4.012h-2.478L96.985 16H95.83l2.417-6.398h.997L101.666 16h-1.16l-.524-1.49zm-2.166-.896h1.854l-.927-2.655-.927 2.655zm6.186.009V16h-1.111V9.602h2.447c.372 0 .703.05.991.151.289.101.533.243.732.424.2.182.35.397.455.646.104.25.156.52.156.813 0 .31-.052.59-.156.835a1.654 1.654 0 0 1-.455.624c-.2.17-.443.3-.732.391a3.3 3.3 0 0 1-.99.137h-1.337zm0-.893h1.336c.214 0 .398-.026.552-.079.154-.052.28-.127.38-.224a.86.86 0 0 0 .218-.345c.045-.133.068-.279.068-.437 0-.15-.023-.293-.068-.43a.985.985 0 0 0-.218-.368 1.058 1.058 0 0 0-.38-.254 1.453 1.453 0 0 0-.552-.095h-1.336v2.232zm6.253.893V16h-1.112V9.602h2.448c.372 0 .702.05.99.151.29.101.533.243.732.424.2.182.351.397.455.646.104.25.156.52.156.813 0 .31-.052.59-.156.835a1.654 1.654 0 0 1-.455.624c-.199.17-.443.3-.731.391a3.3 3.3 0 0 1-.991.137h-1.336zm0-.893h1.336c.214 0 .398-.026.551-.079.154-.052.28-.127.38-.224a.86.86 0 0 0 .218-.345c.045-.133.068-.279.068-.437 0-.15-.023-.293-.068-.43a.985.985 0 0 0-.218-.368 1.058 1.058 0 0 0-.38-.254 1.453 1.453 0 0 0-.551-.095h-1.336v2.232zm12.988.238c0 .486-.064.922-.191 1.307a2.848 2.848 0 0 1-.538.98c-.232.268-.51.474-.835.618a2.648 2.648 0 0 1-1.081.215c-.393 0-.752-.072-1.077-.215a2.398 2.398 0 0 1-.842-.618 2.843 2.843 0 0 1-.549-.98 4.067 4.067 0 0 1-.195-1.307v-.325c0-.487.065-.923.195-1.31s.312-.715.545-.984c.233-.27.512-.476.837-.62a2.637 2.637 0 0 1 1.077-.215c.395 0 .756.071 1.083.215.327.144.607.35.84.62.232.27.413.597.54.984.127.387.191.823.191 1.31v.325zm-1.112-.334c0-.358-.034-.673-.103-.947a2.02 2.02 0 0 0-.3-.688 1.305 1.305 0 0 0-.487-.42 1.449 1.449 0 0 0-.652-.142c-.237 0-.451.047-.642.142-.19.096-.352.235-.485.42a2.053 2.053 0 0 0-.308.688c-.072.274-.108.59-.108.947v.334c0 .357.036.674.108.949.072.275.175.506.31.692a1.333 1.333 0 0 0 1.134.565c.492 0 .87-.188 1.136-.563.265-.375.397-.923.397-1.643v-.334zM129.926 16h-1.112l-2.852-4.54V16h-1.111V9.602h1.111l2.861 4.557V9.602h1.103V16z" fill="#FFF"/></g></svg>